<svg width="2296" height="537" viewBox="0 0 2296 537" fill="none" xmlns="http://www.w3.org/2000/svg">
<g clip-path="url(#clip0_52_2)">
<path d="M1065.71 439.96L1033.77 339.23H870.64L838.7 439.96H757.13L880.95 66.53H1023.44L1147.26 439.96H1065.69H1065.71ZM891.28 274.37H1013.14L952.21 82.25L891.28 274.37Z" fill="#1E1D1C"></path>
<path d="M1436.7 306.8C1436.7 386.89 1392.48 445.85 1326.64 445.85C1285.37 445.85 1252.44 420.79 1238.19 386.4V536.26H1163.5V173.15H1238.19V233.1C1249.98 198.21 1279.96 167.26 1326.64 167.26C1392.48 167.26 1436.7 226.72 1436.7 306.8ZM1360.05 306.8C1360.05 252.26 1338.43 218.35 1297.65 218.35C1256.87 218.35 1235.25 252.25 1235.25 306.8C1235.25 361.35 1256.87 394.75 1297.65 394.75C1338.43 394.75 1360.05 360.85 1360.05 306.8Z" fill="#1E1D1C"></path>
<path d="M1454.89 306.8C1454.89 224.74 1508.45 167.26 1593.94 167.26C1679.43 167.26 1732.99 224.75 1732.99 306.8C1732.99 388.85 1679.43 445.85 1593.94 445.85C1508.45 445.85 1454.89 388.36 1454.89 306.8ZM1656.35 306.8C1656.35 252.26 1634.73 218.35 1593.95 218.35C1553.17 218.35 1531.55 252.25 1531.55 306.8C1531.55 361.35 1553.17 394.75 1593.95 394.75C1634.73 394.75 1656.35 360.85 1656.35 306.8Z" fill="#1E1D1C"></path>
<path d="M2009.64 439.96H1929.55L1865.18 344.14L1800.32 439.96H1719.74L1818.01 297.96L1728.09 173.15H1808.18L1865.18 255.7L1921.68 173.15H2001.28L1911.85 297.96L2009.63 439.96H2009.64Z" fill="#1E1D1C"></path>
<path d="M2216.02 173.15H2295.13L2189.98 536.27H2112.84L2148.22 412.45H2084.84L2006.22 173.16H2081.89L2152.15 397.22L2216.03 173.16L2216.02 173.15Z" fill="#1E1D1C"></path>
<path d="M183.48 112.59L71.0901 440.46H95.9001L185.16 180.03H414.81L504.07 440.46H528.88L416.49 112.59H183.48Z" fill="#1E1D1C"></path>
<path d="M218.29 226.41L144.92 440.46H165.37L215.62 293.86H384.35L434.6 440.46H455.05L381.68 226.41H218.29Z" fill="#1E1D1C"></path>
<path d="M601.57 438.39L451.3 0H148.67L0 433.73V440.46H22.07L150.35 66.21H449.62L577.9 440.46H601.57V438.39Z" fill="#1E1D1C"></path>
<path d="M248.75 340.24L214.4 440.46H236.3L247.53 407.68H352.44L363.67 440.46H385.57L351.22 340.24H248.75Z" fill="#1E1D1C"></path>
</g>
<defs>
<clipPath id="clip0_52_2">
<rect width="2295.13" height="536.26" fill="white"></rect>
</clipPath>
</defs>
</svg>